<svg width="1440.000000" height="356.000000" viewBox="0 0 1440 356" fill="none" xmlns="http://www.w3.org/2000/svg" xmlns:xlink="http://www.w3.org/1999/xlink">
	<desc>
			Created with Pixso.
	</desc>
	<defs>
		<clipPath id="clip20_477">
			<rect id="BG" rx="-0.500000" width="1439.000000" height="355.000000" transform="translate(0.500000 0.500000)" fill="white" fill-opacity="0"/>
		</clipPath>
	</defs>
	<rect id="BG" rx="-0.500000" width="1439.000000" height="355.000000" transform="translate(0.500000 0.500000)" fill="#FFFFFF" fill-opacity="0"/>
	<g clip-path="url(#clip20_477)">
		<path id="Rectangle 6" d="M0 0L1440 0L1440 356.5L0 376L0 0Z" fill="#094B72" fill-opacity="1.000000" fill-rule="evenodd"/>
		<g opacity="0.120000">
			<path id="Vector" d="M406.25 -33.8C369.87 -60.31 332.03 -84.79 294.54 -109.66C257.06 -134.53 219.47 -159.34 183.72 -186.64C160.51 -204.37 133.24 -224.33 117.5 -249.64C83.96 -303.58 189.69 -295.57 217.08 -296.75C286.75 -299.76 366.66 -298.39 431.97 -326.48C470.96 -343.25 486.5 -371.37 478.13 -412.35C475.43 -425.68 467.44 -441.02 474.21 -454.01C481.43 -467.87 498.06 -475.88 511.86 -481.24C562.18 -500.8 620.05 -503.06 673.3 -505.52C730.72 -508.21 788.67 -507.42 845.69 -507.63C869.86 -507.72 895.11 -516.4 918.13 -523.45C948.31 -532.69 978.14 -543.08 1008.07 -553.12C1073.92 -575.15 1141.77 -598.36 1211.43 -603.95C1255.06 -607.46 1302.74 -602.72 1336.63 -572.22C1353.65 -556.91 1362.55 -534.15 1372.39 -513.93C1384.3 -489.5 1395.74 -464.84 1408.41 -440.8C1449.26 -363.36 1507.56 -287.7 1602.21 -283.9C1616.52 -283.32 1630.59 -285.19 1644.84 -285.54C1653.91 -285.75 1661.99 -283.56 1665.36 -274.08C1673.84 -250.28 1647.18 -212.72 1636.25 -193.85C1612.32 -152.52 1585.33 -113.05 1560.05 -72.56C1543.32 -45.78 1514.37 -9.18 1514.07 23.35C1513.8 52.34 1552.39 73.3 1573.4 87.58C1593.09 100.95 1628.76 119.66 1630.92 146.86C1631.97 160.04 1623.27 170.97 1614.18 179.46C1598.25 194.29 1579.89 204.75 1565.56 221.68C1542.06 249.44 1522.43 287.64 1525.62 325.05C1527.83 350.98 1542.64 367.95 1561.47 384.18C1569.38 391 1575.81 395.83 1576.22 406.91C1576.9 424.5 1570 443.12 1564.32 459.42C1544 517.79 1515.14 574.23 1483.03 626.93C1466.98 653.26 1449.65 679.52 1428.37 701.98C1414.44 716.73 1395.65 734.29 1374.4 734.27C1349.79 734.27 1323.75 725.4 1299.82 718.76C1255.16 706.36 1211.03 692.03 1167.06 677.32C1065.41 643.3 964.7 606.53 864.96 567C794.7 539.1 722.95 511.17 656.9 474.09C644.01 466.81 631.85 458.32 620.58 448.73C608.54 438.67 593.59 434.16 578.44 430.8C484.38 409.96 381.34 425.96 286.89 436C262.92 438.54 238.95 441.09 214.91 442.87C194.24 444.4 169.5 448.79 149.41 442.2C109.83 429.22 144.43 381.38 159.06 361.89C210.56 293.26 277.01 235.2 338.6 175.92C367.88 147.69 397.38 119.54 425.08 89.71C439.49 74.2 467.93 48.99 467.83 28.72C467.72 5.6 424.65 -20.4 406.25 -33.8Z" stroke="#FFFFFF" stroke-opacity="1.000000" stroke-width="1.000000"/>
			<path id="Vector" d="M419.11 -34.74C386.02 -59.24 351.9 -82.37 318.29 -106.17C286.51 -128.68 254.66 -151.45 225.23 -177.01C207.28 -192.6 184.77 -211.24 176.27 -234.29C157.83 -284.26 257.02 -276.68 281.51 -277.99C342.39 -281.22 411.42 -281.97 467.74 -308.28C502.91 -324.71 517.36 -351.95 509.86 -389.78C507.27 -402.87 502.59 -414.04 508.51 -427.06C515.35 -442.13 531.08 -451.52 545.5 -458.15C590.68 -478.93 644.08 -483.35 693.05 -487.02C743.64 -490.81 796.35 -493.49 845.32 -490.71C864.9 -489.61 887.43 -495.88 906.81 -500.69C936.63 -508.11 966.14 -516.66 995.81 -524.61C1056.11 -540.79 1117.97 -556.37 1180.68 -558.14C1225.97 -559.42 1273.18 -552.48 1310.86 -525.65C1349.05 -498.44 1365.99 -456.27 1387.16 -416.18C1423.73 -346.86 1473.12 -262.59 1557.72 -247.95C1570.55 -245.72 1582.88 -246.93 1595.69 -246.38C1602.28 -246.11 1609.78 -245.23 1613.12 -238.74C1621.8 -221.89 1598.03 -191.09 1590.03 -178.18C1567.92 -142.52 1543.07 -108.6 1519.9 -73.62C1501.5 -45.85 1478.18 -14.99 1471.07 17.93C1462.43 57.88 1518.85 86.3 1538.7 114.43C1573.1 163.21 1507.92 191.01 1475.79 214.26C1438.89 240.96 1408.44 289.67 1441.51 330.99C1454.17 346.78 1469.74 356.2 1475.39 376.81C1484.22 409.05 1477.54 445.9 1470.37 477.76C1459.57 525.67 1442.47 573.06 1419.23 616.36C1402.58 647.36 1374.96 695.97 1334.51 692.33C1307.28 689.89 1279.6 681.01 1253.07 673.15C1213.38 661.39 1174.18 647.98 1135.18 634.06C1045.18 602.01 956.16 566.67 868.89 527.8C809.35 501.26 643.26 392.84 630.76 388.97C593.49 377.45 551.13 379.47 512.71 381.26C461.6 383.63 410.76 389.78 359.95 395.47C335.76 398.17 311.46 401.46 287.14 402.79C269.84 403.73 247.11 404.54 231.95 394.5C202.37 374.89 235.33 330.03 248.96 311.06C290.72 252.88 343.55 202.5 393.08 150.98C417.39 125.69 442.06 100.44 464.13 73.12C473.03 62.08 495.34 39.93 485.58 24.82C469.79 0.36 442.1 -17.72 419.11 -34.74Z" stroke="#FFFFFF" stroke-opacity="1.000000" stroke-width="1.000000"/>
			<path id="Vector" d="M353.45 -113.97C327.68 -134.5 301.74 -155.58 279.51 -180.03C267.95 -192.75 253.51 -208.82 251.28 -226.55C245.33 -273.96 334.73 -267.55 361.49 -269.35C413.23 -272.84 471.68 -275.49 518.62 -299.68C547.3 -314.47 561.42 -338.74 556.06 -370.65C553.68 -384.81 549.98 -396.83 556.06 -410.73C562.21 -424.81 575.04 -434.75 588.03 -442.2C625.36 -463.62 671.74 -470.47 713.76 -475.58C763.06 -481.52 812.73 -483.84 862.37 -482.52C905.85 -481.38 949.11 -494.19 991.56 -502.64C1047.8 -513.82 1105.05 -523.59 1162.6 -522.12C1208.04 -520.94 1253.85 -511.73 1292.69 -487.24C1332.18 -462.3 1355.91 -424.96 1377.31 -384.68C1409.66 -323.78 1449.98 -242.17 1520.95 -219.04C1531.27 -215.67 1540.89 -215.3 1551.54 -214.72C1556.71 -214.43 1563.39 -214.34 1565.95 -208.96C1572.12 -195.99 1549.31 -170.84 1542.94 -162.08C1522.62 -134.11 1500.6 -107.39 1479.77 -79.79C1460.33 -54.02 1439.15 -27.16 1427.07 3.04C1407.85 51.14 1469.3 79.26 1467.58 125.1C1466.51 153.55 1439.23 173.96 1417.62 188.07C1391.02 205.43 1352.73 216.84 1339.41 248.52C1329.5 272.11 1345.06 285.84 1357.04 303.75C1377.35 334.08 1378.73 375.2 1376.62 410.32C1373.77 457.77 1362.64 505.92 1343.69 549.53C1335.1 569.31 1324.58 589.87 1309.1 605.23C1294.59 619.62 1280.86 623.31 1261.47 620.36C1202.12 611.33 1142.18 586.15 1085.27 563.66C1013.76 535.41 943.23 504.21 874.81 469.11C828.16 445.17 780.45 419.84 739.5 386.77C728.83 378.15 717.9 368.78 710.09 357.41C704.19 348.86 701.69 341.8 691.74 336.92C662.27 322.46 621.27 326.24 589.69 327.75C539.19 330.14 488.94 336.51 438.76 342.25C409.47 345.62 354.3 356.22 330.92 330.79C310.73 308.82 335.09 271.38 347.53 252.03C379 203.1 419.49 160.16 457.05 115.95C474.27 95.68 492.16 75.27 506.37 52.74C510 46.99 515.82 39.38 516.82 32.41C517.94 24.41 512.71 18.31 507.42 12.28C464.31 -36.68 404.81 -73.09 353.45 -113.97Z" stroke="#FFFFFF" stroke-opacity="1.000000" stroke-width="1.000000"/>
			<path id="Vector" d="M380.53 -95.68C361.36 -113.84 341.99 -132.89 327.38 -155.04C319.52 -166.96 311.18 -181.95 313.34 -196.76C319.56 -239.26 393.1 -235.42 422.8 -237.91C466.95 -241.57 517.66 -245.25 556.69 -268.17C582.26 -283.18 591.85 -305.35 587.08 -333.94C581.95 -364.61 593.41 -386.87 619.49 -403.98C652.18 -425.41 693.44 -434.15 731.4 -440.36C777.14 -447.8 823.45 -451.1 869.78 -450.21C914.83 -449.35 958.48 -456.89 1003.24 -461.8C1062.59 -468.29 1123.82 -471.5 1182.5 -458.18C1233.59 -446.58 1279.73 -421.03 1314.32 -381.51C1350.45 -340.26 1368.33 -288.29 1397.67 -242.66C1415.97 -214.2 1441.48 -176.55 1475.68 -165.49C1487.08 -161.8 1507.86 -166.77 1498.75 -148.62C1493.55 -138.24 1483.8 -129.13 1476.11 -120.64C1463.67 -106.93 1450.82 -93.59 1438.18 -80.06C1411.22 -51.23 1382.36 -21.78 1362.16 12.36C1336.7 55.35 1374.54 88.43 1369.93 132.02C1367.45 155.48 1351.12 174.2 1333.85 188.9C1322.68 198.43 1310.44 206.68 1297.97 214.38C1284.93 222.42 1269.5 228.54 1258.13 238.94C1241.93 253.74 1248.96 271.25 1252 290.37C1257.35 323.99 1258.52 358.13 1255.5 392.03C1251.8 433.58 1243.12 476.32 1224.84 514.07C1217.74 528.77 1208.73 544.36 1195.35 554.21C1181.98 564.07 1168.14 563.4 1152.81 560.43C1107.36 551.66 1061.99 531.25 1018.87 511.91C964.89 487.7 911.97 460.64 861.44 429.85C826.56 408.6 791.57 385.65 762.39 356.83C753.9 348.45 745.83 339.47 739.3 329.44C734.81 322.57 732.41 313.7 725.91 308.53C705.59 292.4 664.79 297.21 640.96 298.15C593.39 300.02 546.57 308.91 499.07 311.06C473.14 312.25 432.53 315.21 413.49 293.16C395.59 272.43 411.81 239.78 422.51 219.8C443.54 180.52 471.8 145.53 497.12 109.02C507.53 94 518.94 78.28 525.69 61.12C531.68 45.83 521.33 34.77 511.13 23.67C471.29 -19.61 423.3 -55.17 380.53 -95.68Z" stroke="#FFFFFF" stroke-opacity="1.000000" stroke-width="1.000000"/>
			<path id="Vector" d="M419.05 -86.23C400.36 -108.9 368.16 -147 382.62 -178.96C398.48 -214.08 453.77 -215.04 485.73 -217.87C523.76 -221.24 568.43 -225.84 600.98 -247.76C611.28 -254.7 620.05 -263.87 623.76 -275.96C627.75 -288.89 623.39 -300.21 622.83 -313.16C621.64 -340.32 637.87 -362.12 659.35 -377.1C689.71 -398.27 727.67 -408.28 763.53 -415.26C804.15 -423.14 845.45 -427.02 886.83 -426.85C926.38 -426.72 965.51 -427.59 1005.1 -428.6C1056.87 -429.95 1109.37 -427.77 1159.59 -414.04C1209.06 -400.5 1254.04 -375.12 1289.37 -337.79C1323.84 -301.37 1347.1 -256.85 1367.46 -211.49C1379.02 -185.75 1398.54 -147.29 1426.11 -134.29C1438.37 -128.5 1450.4 -128.9 1437.36 -113.85C1420.95 -94.9 1398.83 -79.69 1379.82 -63.48C1352.39 -40.1 1324.28 -16.25 1301.26 11.56C1286.56 29.32 1280.01 46.55 1281.02 69.54C1281.81 87.06 1285.35 104.39 1283.56 121.97C1279.36 163.24 1246.81 191.54 1218.05 217.9C1199.55 234.85 1182.65 247.77 1173.12 271.88C1161.85 300.38 1157.13 331.38 1149.6 360.97C1141.32 393.46 1131.77 427.26 1113.72 455.87C1097.65 481.35 1078.1 492.78 1048.85 485.91C1003.23 475.22 958.25 448.86 917.75 424.48C876.52 399.68 836 371.79 801.84 337.69C783.39 319.28 770.8 297.67 754.42 277.89C733.82 253.06 687.21 262.46 659.51 264.56C613.52 268.05 468.83 294.16 482.19 209.59C487.76 174.29 509.7 141.71 525.75 110.56C532.4 97.63 542.03 82.12 543.54 67.31C545.18 51.17 530.46 35.85 520.92 24.38C489.21 -13.71 450.99 -47.52 419.05 -86.23Z" stroke="#FFFFFF" stroke-opacity="1.000000" stroke-width="1.000000"/>
			<path id="Vector" d="M463.64 -76.79C450.16 -100.93 436.91 -133.19 454.31 -158.74C473.95 -187.56 517.25 -194.28 549.07 -197.96C581.85 -201.74 620.98 -204.92 647.78 -226.78C656.3 -233.74 663.33 -243.13 664.64 -254.37C665.9 -265.16 662.34 -275.94 663.52 -286.92C666.16 -311.57 681.13 -331.89 700.42 -346.62C757.49 -390.21 842.44 -399.9 911.3 -401.04C945.77 -401.61 981.24 -398.64 1015.93 -396.51C1060.94 -393.74 1106.03 -387.81 1148.96 -373.52C1240.24 -343.13 1301.42 -275.74 1344.15 -191.89C1357.6 -165.5 1367.89 -136.94 1388.96 -115.73C1399.83 -104.77 1397.45 -96.91 1386.35 -86.92C1368.98 -71.31 1347.8 -59.38 1328.53 -46.35C1301.11 -27.82 1273.11 -9.02 1248.87 13.18C1232.16 28.48 1220.29 43.22 1216.68 66.16C1214.12 82.52 1214.72 99.19 1213.18 115.65C1210.24 146.92 1200.17 177.95 1182.35 203.88C1168.18 224.44 1151.31 243.12 1133.9 260.94C1111.25 284.13 1092.09 307.69 1074.88 335.22C1052.07 371.66 1020.03 438.87 966.3 421.08C907.05 401.46 851.52 351.59 813.5 303.27C800.73 287.04 790.25 267.15 773.04 255.18C747.26 237.3 721.11 237.93 690.45 238C644.55 238.1 544.68 248.06 543.6 179.36C543.17 152.15 554.96 126.41 560.61 100.23C566.97 70.91 554.21 51.14 537.66 27.62C513.43 -6.9 484.44 -39.51 463.64 -76.79Z" stroke="#FFFFFF" stroke-opacity="1.000000" stroke-width="1.000000"/>
			<path id="Vector" d="M518.88 -138.24C540.47 -164.67 578.66 -174.61 610.7 -180.53C636.48 -185.32 667.57 -187.12 687.05 -207.42C701.37 -222.34 695.02 -244.06 700.5 -262.75C707.31 -285.91 722.94 -304.86 742.14 -319.11C795.8 -358.92 870.42 -371.14 934.97 -373.74C1002.02 -376.44 1075.89 -363.83 1138.98 -339.59C1217.65 -309.36 1276.57 -252.11 1317.79 -179.61C1325.4 -166.22 1332.31 -152.49 1339.61 -138.94C1344.51 -129.86 1351.79 -121.07 1355.65 -111.51C1362.09 -95.58 1354.51 -82.55 1342.35 -72.16C1324.86 -57.21 1303.37 -46.57 1283.43 -35.35C1256.17 -19.99 1228.29 -4.91 1202.93 13.11C1185.88 25.23 1168.04 38.29 1161.93 59.32C1157.78 73.67 1156.92 88.87 1157.06 103.72C1157.39 135.58 1155.72 161.35 1140.82 190.52C1116.34 238.43 1078.67 281.5 1038.88 317.34C1007.65 345.47 958.24 389.16 912.74 370.35C871.92 353.51 848.04 313.21 821.14 280.62C808.06 264.78 793.37 250.31 776.11 239.05C754.35 224.84 733.87 218.88 708.09 216.56C664.69 212.64 599.26 211.63 585.85 159.63C580.89 140.44 583.72 120.56 581.12 101.13C577.73 75.42 567.8 53.38 555.71 30.69C531.74 -14.29 478 -88.21 518.88 -138.24Z" stroke="#FFFFFF" stroke-opacity="1.000000" stroke-width="1.000000"/>
			<path id="Vector" d="M582.37 -122.65C602.33 -143.84 630.42 -155.69 657.6 -164.54C677.07 -170.89 707.98 -172.75 719.91 -192.26C728.68 -206.62 729.89 -226.42 737.82 -241.8C748.72 -262.95 765.23 -280.36 784.59 -294C835.05 -329.53 900.76 -343.25 960.69 -347.19C1090.9 -355.72 1223.39 -287.78 1293.06 -176.01C1313.84 -142.69 1340.66 -107.23 1307.09 -73.19C1270.43 -36.06 1215.21 -18.67 1171.46 7.72C1154.74 17.79 1133.43 29.9 1124.12 48.14C1118.51 59.11 1118.12 72.86 1117.87 84.93C1117.18 115.67 1114.64 143.32 1102.26 172C1083.15 216.33 1052.68 257.23 1018.15 290.73C988.03 319.94 945.08 354.26 901.35 333.21C867.81 317.02 846.54 282.68 820.49 257.35C791.49 229.16 755.63 210.16 716.25 200.87C677.94 191.86 635.93 185.79 615.74 147.51C608.81 134.39 601.58 117.39 598.98 102.86C594.79 78.9 588.65 55.32 580.63 32.36C563.57 -16.86 541.15 -78.9 582.37 -122.65Z" stroke="#FFFFFF" stroke-opacity="1.000000" stroke-width="1.000000"/>
			<path id="Vector" d="M636.33 -108C653.45 -126.28 675.1 -139.26 696.98 -151.03C713.08 -159.68 729.71 -166.98 741.74 -181.17C752.88 -194.31 761.35 -209.57 772.1 -223.05C786.29 -240.92 803.27 -256.39 822.39 -268.86C870.3 -300.07 928.59 -314.66 984.35 -319.73C1011.35 -322.19 1040.63 -323.47 1067.43 -316.76C1093.32 -310.29 1118.93 -300.05 1142.75 -288.12C1193.36 -262.78 1237.22 -225.67 1269.02 -178.75C1290.82 -146.56 1302.62 -115.27 1274.38 -82.62C1242.55 -45.82 1192.64 -25.51 1151.5 -1.63C1123.28 14.75 1091.66 30.81 1086.39 65.62C1082.18 93.32 1078.78 119.62 1067.93 145.8C1051.77 184.42 1028.01 219.41 998.05 248.68C970.66 275.35 936 297.98 896.82 283.74C865.78 272.43 841.69 247.1 814.57 229C784.35 208.77 751.14 197.62 716.17 188.66C684.74 180.57 655.15 168.14 634.84 141.74C630.68 136.35 626.31 130.48 623.11 124.44C619.02 116.74 619.33 109.11 618.53 100.48C616.44 77.71 611.99 55.2 608.42 32.71C600.53 -17 599.65 -68.83 636.33 -108Z" stroke="#FFFFFF" stroke-opacity="1.000000" stroke-width="1.000000"/>
			<path id="Vector" d="M682.23 -99.98C695.54 -115.72 711.43 -128.69 726.08 -143.11C737.87 -154.74 749.01 -165.54 762.57 -175.12C794.73 -197.81 820.87 -227.17 855.05 -247.37C900.67 -274.38 952.93 -289.31 1004.79 -295.28C1030.12 -298.2 1056.27 -299.22 1081.89 -295.92C1103.9 -293.09 1124.97 -283.16 1144.52 -273C1182.82 -253.09 1220.03 -224.8 1244.91 -189C1299.75 -110.09 1191.62 -52.72 1136.12 -19.12C1110.59 -3.66 1071.59 14.24 1061.14 44.85C1053.66 66.73 1049.11 88.97 1039.49 110.16C1013.63 167.09 961.14 234.04 891.2 225.12C861.27 221.31 833.99 205.84 806.05 195.46C777.29 184.76 747.59 178.8 717.69 172.26C689.75 166.15 667.47 157.45 649.42 134.13C640.79 123 641.56 109.67 640.79 96.01C639.53 73.57 638.76 51.01 639.06 28.64C639.74 -18.57 651.1 -63.19 682.23 -99.98Z" stroke="#FFFFFF" stroke-opacity="1.000000" stroke-width="1.000000"/>
			<path id="Vector" d="M781.29 -167.85C853.47 -216.53 931.67 -257.53 1017.91 -269.31C1057.9 -274.78 1101.69 -277.47 1139.42 -259.6C1168.14 -246.01 1201.49 -225.69 1217.29 -197.12C1255.94 -127.24 1169.96 -71.61 1120.97 -39.28C1094.59 -21.88 1061.02 -4.92 1041.14 20.5C1029.6 35.24 1023.71 54.73 1014.4 70.91C986.18 119.96 939.73 159.52 881.86 166.6C855.11 169.86 828.16 165.82 801.6 162.61C774.42 159.32 746.91 157.53 719.9 152.95C698.33 149.28 672.92 143.07 664.98 120.02C654.97 90.97 662.38 51.7 666.96 22.6C678.2 -48.67 719.93 -126.47 781.29 -167.85Z" stroke="#FFFFFF" stroke-opacity="1.000000" stroke-width="1.000000"/>
			<path id="Vector" d="M803.75 -161.2C834.68 -182.41 870.6 -197.05 905.08 -211.52C944.16 -227.91 984.99 -240.64 1026.69 -246.95C1078.63 -254.81 1162.73 -261.9 1189.86 -202.79C1216.79 -144.12 1148.75 -92.19 1108.51 -62.6C1082.71 -43.65 1055.1 -26.25 1030.44 -5.52C1017.08 5.71 1006.79 18.69 995.47 31.87C964.21 68.38 919.64 97.29 874.22 112.72C830.19 127.67 775.73 134.3 729.26 129.35C709.21 127.23 694.87 120.06 688.81 99.68C680.41 71.35 687.55 38.82 694.32 11.15C710.71 -55.85 745.41 -121.2 803.75 -161.2Z" stroke="#FFFFFF" stroke-opacity="1.000000" stroke-width="1.000000"/>
			<path id="Vector" d="M824.12 -155.17C881.53 -194.86 955.46 -216.91 1023.42 -228.13C1059.54 -234.09 1137.81 -250.24 1156.22 -204.01C1174.63 -157.79 1121.41 -112.24 1090.78 -87.16C1053.6 -56.77 1013.52 -27.43 973.48 -0.17C938.69 23.54 901.58 47.77 863.9 66.08C842.65 76.47 820.51 84.95 797.75 91.42C780.9 96.17 759.47 103.27 741.8 99.73C697.24 90.79 713.72 21.31 721.51 -6.9C737.79 -65.89 772.9 -119.77 824.12 -155.17Z" stroke="#FFFFFF" stroke-opacity="1.000000" stroke-width="1.000000"/>
			<path id="Vector" d="M1012.92 -210.11C1038.25 -214.55 1109.23 -230.55 1123.38 -196.47C1137.1 -163.43 1093.48 -124.25 1073.06 -105.69C1009.78 -48.16 931.59 -5.51 857.51 36.75C834.39 49.94 792.68 78.56 764 65.36C732.86 51 747.66 -1.43 755.06 -24.56C790.78 -136.12 903.95 -190.98 1012.92 -210.11Z" stroke="#FFFFFF" stroke-opacity="1.000000" stroke-width="1.000000"/>
			<path id="Vector" d="M996.14 -190.84C1016.49 -194.64 1068.16 -206.47 1083.56 -183.55C1097.82 -162.34 1063.8 -131.61 1051.06 -119.4C1022.72 -92.21 989.12 -69.81 955.94 -48.28C925.25 -28.36 894.24 -7.94 861.95 8.91C844.94 17.78 813.05 36.7 793.72 23.01C772.91 8.27 784.75 -27.79 791.65 -46.03C822.71 -128.19 913.07 -175.31 996.14 -190.84Z" stroke="#FFFFFF" stroke-opacity="1.000000" stroke-width="1.000000"/>
			<path id="Vector" d="M974.99 -170.1C990.05 -173.21 1022.58 -181.27 1035.28 -166.94C1046.97 -153.75 1028.13 -134.41 1019.77 -125.47C982.71 -85.87 928.44 -50.5 878.72 -28.78C866.22 -23.32 843.75 -12.6 830.89 -23.62C817.7 -34.94 826.53 -57.72 831.97 -70.04C855.65 -123.69 919.06 -158.52 974.99 -170.1Z" stroke="#FFFFFF" stroke-opacity="1.000000" stroke-width="1.000000"/>
			<path id="Vector" d="M951.84 -145.71C972.16 -150.21 996.6 -146.32 978.88 -123.13C961.28 -100.12 928.63 -79.1 900.95 -69.78C879.84 -62.68 863.29 -69.69 874.74 -92.57C888.08 -119.21 922.95 -139.31 951.84 -145.71Z" stroke="#FFFFFF" stroke-opacity="1.000000" stroke-width="1.000000"/>
			<path id="Vector" d="M-222.18 -69.02C-210.82 -113.06 -153.67 -116.74 -119.38 -136.69C-92.13 -152.55 -76.67 -180.63 -61.94 -207.58C-48.7 -231.77 -36.8 -256.69 -22.86 -280.48C-13.83 -295.86 1.67 -326.07 21.25 -326.61C40 -327.14 57.19 -303.6 68.07 -289.69C82.27 -271.55 94.86 -252.21 108.64 -233.79C131.87 -202.71 159.75 -179.7 191.66 -157.93C227.98 -133.15 264.9 -109.23 302.42 -86.14C330.05 -69.1 357.86 -52.18 384.41 -33.45C401.07 -21.7 437.83 0.35 438 22.02C438.08 32.35 428.27 43.8 421.66 52.07C410.48 66.05 397.73 78.84 384.94 91.36C361.13 114.66 336.3 136.92 311.74 159.44C279.86 188.67 249.42 217.42 221.39 250.6C192.42 284.94 164.74 320.42 136.5 355.42C117.37 379.12 98.26 405.75 70.67 420.29C36.12 438.48 7.75 419.3 -27.2 419.08C-57.26 418.88 -55.04 349.27 -58.86 329.92C-62.7 310.33 -71.15 292.09 -74.42 272.45C-78.5 247.94 -78.56 222.86 -79.56 198.08C-80.78 167.77 -81.27 138.92 -113.68 127.37C-132.13 120.8 -152.08 119.42 -171.18 115.49C-183.55 112.93 -206.88 108.57 -207.15 91.94C-208.01 39.31 -236 -15.39 -222.18 -69.02Z" stroke="#FFFFFF" stroke-opacity="1.000000" stroke-width="1.000000"/>
			<path id="Vector" d="M-196.53 -63.55C-181.49 -102.47 -134.45 -107.51 -102.78 -127.96C-76.63 -144.82 -64.99 -172.41 -51.92 -199.52C-41.44 -221.26 -31.27 -243.22 -19.36 -264.27C-10.59 -279.78 2.8 -305.97 21.04 -309.18C37.44 -312.07 55.02 -288.95 64.23 -277.19C77.66 -260.01 89.14 -241.36 101 -223.11C121.85 -191.03 143.19 -162.19 173.7 -138.63C204.34 -114.97 237.86 -97.28 271.74 -78.87C298.25 -64.46 324.62 -49.63 349.8 -33C368.56 -20.62 395.53 -4.77 404.12 17.32C410.91 34.78 376.45 63.77 366.29 74.01C345.37 95.04 323.2 114.79 301 134.42C273.92 158.34 245.99 179.25 222.08 206.54C179.32 255.32 143.58 316.06 88.55 352.31C55.37 374.18 18.44 379.77 -18.47 376.5C-33.09 375.21 -36.6 354.59 -38.44 342.56C-41.5 322.58 -41.89 302.26 -44.24 282.2C-46.45 263.42 -51.35 245.58 -55.3 227.17C-59.29 208.51 -60.41 189.4 -63.35 170.61C-65.18 158.95 -66.98 145.38 -74.95 136C-83.19 126.3 -96.8 122.23 -108.68 119.14C-131.01 113.4 -190.14 113.71 -192.37 82.58C-195.52 38.46 -214.14 -18.01 -196.53 -63.55Z" stroke="#FFFFFF" stroke-opacity="1.000000" stroke-width="1.000000"/>
			<path id="Vector" d="M-164.48 -64.14C-146.83 -94.65 -109.19 -101.23 -82.31 -121.1C-59.95 -137.63 -51.5 -163.93 -40.41 -188.36C-31.3 -208.4 -22.14 -228.52 -11.11 -247.59C-2.73 -262.06 8.05 -281.67 24.68 -286.71C38.89 -291.02 54.94 -271.71 62.82 -262.1C76.23 -245.72 87.17 -227.36 98.03 -209.25C115.8 -179.61 132.16 -147.95 157.45 -123.84C182.02 -100.45 211.21 -86.64 240.95 -71.11C263.73 -59.21 286.37 -46.86 307.83 -32.67C324.31 -21.79 344.73 -8.89 353.32 9.22C360.74 24.85 341.68 43.34 332.15 54.36C316.42 72.54 298.96 89.23 281.75 105.98C263.17 124.05 242.59 140.73 224.61 159.24C186.81 198.21 156.6 241.36 110 271.21C79.83 290.55 39.22 308.12 3.54 304.96C-22.11 302.68 -20.42 245.95 -22.89 227.82C-26.94 198.19 -34.76 167.04 -47.19 139.74C-57.86 116.35 -83.23 109.13 -106.56 103.89C-121.18 100.59 -136.5 98.81 -150.63 93.72C-167 87.82 -171.13 81.08 -173.35 64.11C-178.65 23.61 -186.07 -26.83 -164.48 -64.14Z" stroke="#FFFFFF" stroke-opacity="1.000000" stroke-width="1.000000"/>
			<path id="Vector" d="M-137.61 -59.22C-119.7 -85.16 -87.81 -91.99 -65.12 -112.42C-47.42 -128.37 -40.47 -154.36 -30.95 -175.45C-19.31 -201.23 -3.01 -248.84 26.34 -258.55C53.65 -267.56 82.2 -209.95 92.09 -192.77C107.74 -165.58 120.83 -135.76 139.81 -110.65C156.15 -89.03 178.05 -77.08 201.29 -64.24C230.93 -47.83 275.92 -28.38 291.77 3.59C303.58 27.41 265.17 62.82 252.06 79.33C238.34 96.57 228.01 117 213.86 133.64C191.52 159.88 155.32 181.01 125.43 197.14C96.38 212.83 58.65 230.19 25.69 229.16C4.03 228.48 -0.1 195.05 -4.72 178.72C-11.34 155.51 -20.14 134.71 -39.06 118.92C-58.31 102.85 -81 95.28 -104.85 88.65C-117.09 85.27 -131.06 82.64 -142.01 75.81C-154.11 68.39 -154.39 58.29 -155.61 45.13C-158.76 10.89 -158.05 -29.6 -137.61 -59.22Z" stroke="#FFFFFF" stroke-opacity="1.000000" stroke-width="1.000000"/>
			<path id="Vector" d="M-106.97 -58.55C-90.26 -77.55 -64.09 -83.9 -48.09 -103.33C-35.41 -118.71 -28.96 -140.31 -20.48 -158.17C-10.1 -180.06 4.58 -218.29 30.39 -225.89C55.58 -233.29 77.86 -191.17 87.51 -174.5C101.66 -150.07 113.11 -124.16 127.38 -99.8C138.56 -80.68 152.23 -68.35 170.44 -56.03C191.81 -41.56 221.62 -25.52 233.04 -1.58C241.27 15.76 221.35 43.46 214.11 58.74C209.26 69 204.82 79.42 202.39 90.53C200.49 99.19 200.3 107.21 194.8 114.64C180.94 133.34 150.57 135.78 129.96 141.95C102.59 150.13 73.55 159.43 44.9 161.2C27.3 162.31 18.31 146.1 8.26 134.7C-3.61 121.22 -20.42 111.53 -35.1 101.36C-54.48 87.91 -75.57 79.55 -97.38 70.99C-107.22 67.12 -118.78 63.33 -126.4 55.64C-134.36 47.68 -134.05 36.07 -133.99 25.39C-133.81 -4.19 -127.04 -35.73 -106.97 -58.55Z" stroke="#FFFFFF" stroke-opacity="1.000000" stroke-width="1.000000"/>
			<path id="Vector" d="M-78.65 -58.32C-64.61 -71.8 -45.97 -79.39 -34.71 -95.59C-24.21 -110.69 -16.89 -127.86 -8.22 -144.01C0.95 -161.08 14.58 -189.61 35.75 -194.25C58.55 -199.25 76.12 -170.47 85.85 -154.52C98.14 -134.37 107.48 -112.68 118.47 -91.83C126.75 -76.29 137.31 -62.07 149.8 -49.66C162.9 -36.57 180.66 -24.04 187.29 -6.05C193.15 9.89 182.19 29.17 180.25 45.33C178.18 62.59 181.81 80.73 170.33 95.55C146.67 126.13 87.28 120.46 53.33 121.11C19.83 121.79 -7.11 103.08 -34.21 85.28C-52.12 73.53 -70.77 63.58 -89.13 52.63C-107.84 41.46 -114.34 29.7 -111.28 7.83C-107.8 -17.01 -96.96 -40.75 -78.65 -58.32Z" stroke="#FFFFFF" stroke-opacity="1.000000" stroke-width="1.000000"/>
			<path id="Vector" d="M-24.8 -88.7C-6 -110.97 8.09 -157.08 39.74 -163.18C75.68 -170.1 97.19 -109.01 109.69 -85.43C123.55 -59.28 148.24 -38.02 158.5 -10.34C163.9 4.19 159.27 17.74 156.39 32.26C153.24 48.21 150.88 64.51 140 77.34C118.6 102.6 76.79 102.42 46.68 103.12C15.52 103.84 -12.05 86.53 -36.88 69.26C-63.22 50.97 -100.72 30.52 -90.18 -6.39C-79.9 -42.38 -47.77 -61.5 -24.8 -88.7Z" stroke="#FFFFFF" stroke-opacity="1.000000" stroke-width="1.000000"/>
			<path id="Vector" d="M-17.23 -82.31C-0.74 -98.72 17.01 -131.75 42.17 -134.1C71.73 -136.88 89.65 -101.61 101.28 -79.98C112.73 -58.74 129.23 -36.3 135.57 -12.98C142.18 11.31 124.58 44.03 107.79 61.22C89.06 80.39 58.42 87.47 32.13 86.71C4.6 85.93 -20.65 70.09 -41.5 53.66C-63.79 36.09 -86.43 13.62 -72.95 -16.15C-61.36 -41.79 -37 -62.63 -17.23 -82.31Z" stroke="#FFFFFF" stroke-opacity="1.000000" stroke-width="1.000000"/>
			<path id="Vector" d="M-9 -76.43C4.66 -88.86 24.81 -109.98 44.51 -110.5C66.19 -111.07 84.56 -93.34 93.18 -75.16C101.67 -57.24 110.63 -34.76 111.9 -15.09C114.66 27.74 58.44 75.71 16.22 71.81C-23.81 68.11 -79.04 21.52 -56.97 -20.97C-45.89 -42.3 -26.7 -60.34 -9 -76.43Z" stroke="#FFFFFF" stroke-opacity="1.000000" stroke-width="1.000000"/>
			<path id="Vector" d="M44.55 -91.67C83.98 -92.74 93.88 -48.66 88.74 -16.71C83.52 15.89 38.06 63.09 1.81 56.71C-33.57 50.49 -60.28 9.63 -42.18 -23.32C-26.9 -51.11 10.2 -90.73 44.55 -91.67Z" stroke="#FFFFFF" stroke-opacity="1.000000" stroke-width="1.000000"/>
			<path id="Vector" d="M42.75 -81.02C77.05 -82.06 76.4 -44.85 68.62 -21.68C60.54 2.37 24.92 43.45 -5.11 36.96C-34.32 30.63 -38.96 -5.52 -26.57 -27.82C-13.63 -51.08 13.97 -80.14 42.75 -81.02Z" stroke="#FFFFFF" stroke-opacity="1.000000" stroke-width="1.000000"/>
			<path id="Vector" d="M37.25 -68.75C62.07 -69.56 57.25 -40.04 50.83 -25.79C43.21 -8.83 17.65 20.62 -3.8 15.85C-24.91 11.15 -20.01 -16.82 -12.97 -30.5C-4.43 -47.1 16.93 -68.08 37.25 -68.75Z" stroke="#FFFFFF" stroke-opacity="1.000000" stroke-width="1.000000"/>
			<path id="Vector" d="M979.27 1006.8C893.66 1047.63 806.8 1087.37 716.84 1117.79C668.62 1134.09 606.12 1157.59 554.38 1144.81C535.46 1140.15 518.2 1126.03 501.24 1116.86C477.85 1104.19 454.11 1092.18 430.42 1080.13C382.88 1055.97 335.2 1032.05 288.49 1006.34C265.99 993.95 244.17 978.36 220.75 967.79C207.06 961.62 190.68 964.51 176.06 964.9C142.19 965.81 108.33 967.53 74.48 969C33.07 970.79 -8.43 972.7 -49.88 971.99C-68.58 971.67 -114.37 974.98 -124.67 958.9C-130.2 950.23 -117.15 934.61 -111.1 927.38C-99.99 914.09 -87.22 902.12 -74.63 890.27C-45.49 862.87 -14.54 836.77 11.36 806.15C24.67 790.42 42.1 771.19 33.42 749.7C24.65 728 9.46 709.21 0.19 687.59C-10.48 662.7 -14.9 636.8 -19.94 610.42C-23.67 590.91 -32.36 573.63 -40.53 555.65C-49.55 535.78 -58.9 515.73 -65.17 494.77C-69.31 480.93 -75.99 456.02 -61.51 447.26C-40.92 434.79 -2.32 444.89 21.15 448.56C53.58 453.62 85.77 460.08 118.11 465.64C141.59 469.68 165.15 474.11 189.02 474.58C227.51 475.34 266.11 472.71 304.49 470.26C375.56 465.72 446.12 459.56 517.42 459.56C579.89 459.56 724.26 531.76 758.05 544.47C825.5 569.85 894.74 593.91 958.57 627.68C975.84 636.82 1002.42 649 1011.5 667.81C1017.11 679.41 1014.53 686.11 1027.75 693.58C1045.79 703.78 1068.9 707.78 1088.86 712.34C1121.02 719.68 1153.42 725.9 1185.72 732.55C1251.05 745.96 1315.94 761.14 1381 775.74C1400.67 780.15 1424.47 781.13 1443.22 788.9C1455.31 793.89 1454.05 800.18 1444.7 807.76C1428.29 821.08 1405.29 828.47 1385.9 836.06C1357.5 847.18 1328.63 857.11 1299.75 866.89C1270.86 876.67 1241.82 886.15 1212.93 895.95C1193.85 902.41 1172.07 907.65 1154.93 918.05C1099.98 951.36 1037.86 978.85 979.27 1006.8Z" stroke="#FFFFFF" stroke-opacity="1.000000" stroke-width="1.000000"/>
			<path id="Vector" d="M924.85 996.63C845.24 1029.85 763.83 1060.99 679.96 1081.75C630.71 1093.93 572.6 1107.39 522.28 1093.42C504.32 1088.43 490.91 1077.23 475.52 1067.34C457.98 1056.05 439.77 1045.71 421.55 1035.53C384.06 1014.57 346.16 994.33 307.87 974.8C287.59 964.42 265.27 950.51 242.36 946.91C224.14 944.04 203.45 948.19 185.16 949.4C152.21 951.57 119.26 953.81 86.3 955.72C48.26 957.91 10.12 959.93 -28 959.58C-49.24 959.39 -85.72 962.62 -100.74 948.9C-113.85 936.93 -66.12 893.65 -57.73 885.42C-31.52 859.74 -3.96 835.29 20.44 807.84C34.86 791.64 52.41 771.95 58.49 750.49C63.66 732.2 53.68 711.36 47.78 694.45C40.41 673.27 34.46 651.32 25.89 630.59C18.26 612.11 6.12 595.66 -4.55 578.87C-16.28 560.39 -28.16 541.62 -36.87 521.47C-42.21 509.07 -51.04 488.3 -40.43 476.48C-28.18 462.85 9.58 471.76 25.11 473.7C56.6 477.69 87.85 483.63 119.13 488.95C171.08 497.77 220.6 505.49 273.5 503.64C342.39 501.23 411.21 495.55 480.08 492.4C505.52 491.23 531.36 488.87 556.81 490.14C571.4 490.88 582.52 495.33 591 505.38C602.59 519.08 629.29 526.67 647.86 534.54C676.8 546.8 706.12 558.2 735.35 569.75C799.52 595.12 864.93 619.57 925.79 652.38C945.04 662.75 967.09 674.33 981.33 691.47C989.28 701.03 987.28 710.24 992.13 720.4C998.55 733.76 1019.67 739.8 1032.29 744.17C1056.66 752.61 1082.02 758.27 1107.18 763.58C1164.12 775.57 1221.19 783.46 1279.06 789.27C1292.62 790.62 1346.02 795.29 1317.97 817.83C1286.99 842.73 1242.25 854.93 1205.77 868.97C1172.91 881.58 1140.02 893.32 1109.71 910.72C1051.57 944.1 987.06 970.69 924.85 996.63Z" stroke="#FFFFFF" stroke-opacity="1.000000" stroke-width="1.000000"/>
			<path id="Vector" d="M855.36 976.77C783.96 1002.21 710.76 1024.87 635.87 1037.56C588.82 1045.54 536.95 1051.66 490.22 1038.42C458.31 1029.38 433.63 1004.94 405.6 988.12C377.57 971.31 348.41 955.53 318.37 942.37C299.73 934.21 279.68 925.98 258.94 927.06C208.51 929.68 158.14 935.91 107.66 938.93C74.26 940.95 40.8 942.62 7.3 942.12C-12.9 941.82 -40.65 943.03 -58.54 932.42C-78.31 920.68 26.95 820.43 36.9 809.15C61.84 780.85 92.04 743.31 87.22 703.07C82.61 664.61 62.62 635.89 40.01 605.76C27.17 588.61 -13.98 542.82 1.27 520.52C9.98 507.77 38.7 512.19 52.34 513.06C79.23 514.77 105.97 518.44 132.71 521.64C171.71 526.26 211.78 533.41 250.95 535.51C278.22 536.96 305.65 535.01 332.97 534.97C372.14 534.92 411.31 535.22 450.48 535.57C483.38 535.86 516.54 535.57 549.32 538.72C569.69 540.66 585.16 545.02 599.78 557.33C612.49 568.04 631.68 574.31 647.89 581.12C674.66 592.37 701.78 602.79 728.82 613.38C785.42 635.55 842.67 657.26 896.85 684.97C921.58 697.62 963.17 715.32 968.97 745.98C971.06 757.03 972.6 761.81 983.41 768.09C998.75 777.01 1017.12 781.03 1034.32 784.53C1074.44 792.68 1115.73 791.46 1155.78 799.51C1172.09 802.83 1193.38 810 1174.76 826.41C1153.03 845.6 1121.41 856.15 1095.38 868.01C1082.38 873.92 1069 879.46 1056.66 886.68C1047.18 892.24 1039.06 899.38 1029.38 904.55C974.74 933.91 914.21 955.82 855.36 976.77Z" stroke="#FFFFFF" stroke-opacity="1.000000" stroke-width="1.000000"/>
			<path id="Vector" d="M766.75 952.2C706.96 969.54 645.71 983.9 583.66 990.01C540.82 994.25 495.17 995.5 453.58 982.54C427.29 974.34 409.46 957.1 386.83 942.65C352.67 920.8 315.72 903.48 274.69 907.7C228.69 912.41 182.54 915.95 136.23 918.31C108.31 919.73 80.27 920.8 52.3 919.8C34.62 919.18 11.84 918.14 -3.54 910.14C-24.12 899.42 53.19 817.88 62.82 806C86.72 776.52 104.24 745.6 114.47 709.08C122.82 679.29 105.77 655.86 88.18 633.57C77.24 619.73 41.9 584.92 52.96 566.94C59.03 557.03 79.03 557.54 89.77 557.04C110.25 556.08 130.81 557.08 151.28 557.52C181.51 558.19 213.69 553.55 243.66 557.29C310.08 565.55 376.34 572.71 443.18 578.37C480.02 581.49 517.09 584.33 553.6 590.34C566.71 592.51 580.25 594.8 592.67 599.68C600.66 602.82 605.02 608.17 611.76 612.56C643.91 633.45 685.88 644.2 722.09 657.59C770.23 675.39 818.63 692.91 865.48 713.94C890.13 725 924.55 737.71 941.51 760.28C946.64 767.1 944.45 772.55 947.68 779.11C951.38 786.67 962.65 788.93 969.93 791.03C986.44 795.82 1055.56 803.06 1023.72 831.14C1008.52 844.52 989.15 853.1 972.01 863.61C965.81 867.42 959.76 871.25 954.59 876.39C945.94 885 937.41 889.92 925.89 895.38C875.41 919.23 820.59 936.57 766.75 952.2Z" stroke="#FFFFFF" stroke-opacity="1.000000" stroke-width="1.000000"/>
			<path id="Vector" d="M490.54 944.83C454.41 943.13 415.54 937.46 384.22 918.05C365.75 906.58 351 893.64 328.81 889.5C312.8 886.51 295.56 889.9 279.45 891.13C256.12 892.91 232.77 894.5 209.41 895.79C180.44 897.36 151.38 898.57 122.36 897.93C101.62 897.46 72.98 897.99 54.97 886.86C33.46 873.58 88.21 811.31 95.91 800.21C114.58 773.32 127.67 747.26 132.4 714.85C133.79 705.4 138.48 695.73 137.87 686.21C137.23 676.49 131.24 667.83 125.71 660.19C118.47 650.17 93.36 626.42 100.55 614.2C104.52 607.45 119.44 606.6 127.17 605.17C141.67 602.48 156.38 601.03 170.97 598.88C195.72 595.22 220.29 583.32 245.13 583.66C311.92 584.55 379.68 605.24 445.14 616.61C484.05 623.39 523.23 629.54 561.67 638.72C573.83 641.63 586.36 644.64 597.92 649.57C605.98 653.01 611.17 659.14 618.64 662.99C647.3 677.78 680.25 686.76 711.02 696.72C750.97 709.67 791.05 722.23 830.72 736.02C855.59 744.66 887.56 752.26 908.99 768.29C924.64 779.99 913.94 783.49 905.68 794.39C901.47 799.95 902.44 805.43 900.61 811.72C897.99 820.7 890.6 827.17 883.67 832.99C874.11 841.02 861.37 847.64 853.55 857.49C850.8 860.95 850.92 865.26 848.69 868.28C842.21 877.08 825 881.43 815.63 885.06C715.97 923.64 599.19 949.93 490.54 944.83Z" stroke="#FFFFFF" stroke-opacity="1.000000" stroke-width="1.000000"/>
			<path id="Vector" d="M453.31 902.97C423.57 900.74 393.64 895.55 365.93 884.15C353.33 878.98 343.86 873.22 330.05 872.91C298 872.19 265.85 874.7 233.8 875.3C210.87 875.73 187.82 875.89 164.94 874.04C149.64 872.81 128.96 871.34 116.43 861.97C98.21 848.32 131.09 801.92 137.78 789.1C148.87 767.83 159.87 744.2 155.47 719.59C154.12 712.07 151.74 705.42 151.42 697.75C151.13 691.16 151.96 685.07 149.62 678.77C146.72 670.96 133.85 658.83 138.28 651.64C141.29 646.73 150.24 646.5 156.19 644.92C165.84 642.37 175.26 639.03 184.35 634.92C193.93 630.58 202.09 623.86 212.01 620.27C228.12 614.46 246.14 613.91 263.07 613.94C330.62 614.05 399.03 627.36 464.87 641.28C499.15 648.53 533.63 656.25 566.95 667.25C577.06 670.59 588.53 673.94 597.43 680.11C602.98 683.95 606.74 688.76 613.05 691.64C666.92 716.3 729.2 725.46 786.39 743.27C801.28 747.9 883.78 771.32 840.64 793.35C814.44 806.74 786.75 812.83 762.84 831.14C755.55 836.71 750.7 841.32 747.85 849.81C745.98 855.47 750.49 852.6 744.19 858.51C736.55 865.62 719.1 868.48 709.68 871.31C628.8 895.57 538.81 909.38 453.31 902.97Z" stroke="#FFFFFF" stroke-opacity="1.000000" stroke-width="1.000000"/>
			<path id="Vector" d="M334.43 860.16C310.18 855.74 284.95 856.79 260.4 855.67C236.55 854.59 194.15 856.83 176.83 838.51C164.27 825.23 177.9 797.01 182.61 782.15C188.62 763.23 193.87 743.67 184.01 725.29C178.23 714.53 170.32 704.28 164.12 693.62C161.16 688.53 155.06 680.72 157.6 675.9C161.81 667.94 181.49 664.59 191.04 660.83C221.56 648.84 253.89 645.78 286.52 645.86C346.8 646.02 407.39 654.25 466.51 665.42C493.72 670.56 521.3 676.05 547.53 684.98C562.38 690.03 573.33 699.78 587.51 705.56C633.15 724.18 682.2 734.13 728.63 751.16C742.07 756.09 792.27 772.51 766.98 791.87C742.5 810.6 706.78 808.38 681.33 826C678.44 828.02 674.88 830.44 673.21 833.7C672.22 835.65 673.96 839.37 673.21 840.48C665.39 852.54 637.6 854.46 625.58 856.97C530.89 876.77 430.61 877.71 334.43 860.16Z" stroke="#FFFFFF" stroke-opacity="1.000000" stroke-width="1.000000"/>
			<path id="Vector" d="M416.61 852.61C389.61 852.84 359.94 854.55 333.52 847.72C317.29 843.51 301.62 839.83 284.89 837.18C266.89 834.33 237.91 832.25 226.95 816.78C218.76 805.22 224.37 781.46 224.67 767.4C224.99 751.98 221.82 740.55 210.93 729.52C204.08 722.57 172.66 697.35 176.29 690.08C179.74 683.15 201.64 682.09 211.1 680.29C241.03 674.58 271.35 672.6 301.78 672.91C348.92 673.38 396.24 678.18 442.64 686.44C461.82 689.87 481.65 693.42 499.97 700.27C512.31 704.89 522.61 713.08 534.86 717.86C569.97 731.55 607.1 740.86 642.33 754.8C653.63 759.29 690.47 771.23 681.64 789.63C674.28 804.99 649.23 809.67 636.92 819.96C615.99 837.52 590.93 840.23 564.23 843.88C515.65 850.54 466.01 852.19 416.61 852.61Z" stroke="#FFFFFF" stroke-opacity="1.000000" stroke-width="1.000000"/>
			<path id="Vector" d="M416.56 841.48C391.33 841.54 364.7 841.88 339.94 836.22C327.5 833.37 316.69 826.72 304.92 821.98C292.8 817.1 276.07 811.66 270.83 800.47C265.91 789.96 267.75 774.62 263.42 761.95C259.58 750.7 251.53 743.76 242.86 736.16C237.34 731.3 208.98 710.27 212.26 705.63C215.77 700.65 232.81 701.06 241.67 700.37C266.09 698.44 290.59 697.83 315.08 698.53C348.49 699.56 382.17 702.41 415.01 708.88C438.3 713.46 455.87 724.38 477.59 732.38C505.73 742.78 534.87 751 562.74 762.38C576.63 768.04 597.18 775.33 604.3 789.96C607.03 795.57 609.68 809.82 606.64 815.43C602.98 822.17 589.37 825.03 582.95 826.76C566.85 831.08 550.01 833.18 533.63 835.05C495.09 839.46 455.66 841.39 416.56 841.48Z" stroke="#FFFFFF" stroke-opacity="1.000000" stroke-width="1.000000"/>
		</g>
	</g>
</svg>
